<svg width="20" height="20" viewBox="0 0 20 20" fill="none" xmlns="http://www.w3.org/2000/svg">
<rect x="0.25" y="0.25" width="19.5" height="19.5" rx="3.75" fill="#FF7E2B" fill-opacity="0.2"/>
<rect x="0.25" y="0.25" width="19.5" height="19.5" rx="3.75" fill="url(#paint0_linear_59_530)" fill-opacity="0.1" style="mix-blend-mode:overlay"/>
<rect x="0.25" y="0.25" width="19.5" height="19.5" rx="3.75" stroke="#FF7E2B" stroke-width="0.5"/>
<path d="M14.4606 7.20719L13.7106 5.70719C13.6794 5.64489 13.6315 5.5925 13.5723 5.5559C13.513 5.51931 13.4447 5.49995 13.375 5.5H6.625C6.55533 5.49995 6.48703 5.51931 6.42775 5.5559C6.36847 5.5925 6.32055 5.64489 6.28938 5.70719L5.53938 7.20719C5.51353 7.25936 5.50005 7.31678 5.5 7.375V13.75C5.5 13.9489 5.57902 14.1397 5.71967 14.2803C5.86032 14.421 6.05109 14.5 6.25 14.5H13.75C13.9489 14.5 14.1397 14.421 14.2803 14.2803C14.421 14.1397 14.5 13.9489 14.5 13.75V7.375C14.4999 7.31678 14.4865 7.25936 14.4606 7.20719ZM6.85656 6.25H13.1434L13.5184 7H6.48156L6.85656 6.25ZM13.75 13.75H6.25V7.75H13.75V13.75ZM11.7653 10.1097C11.8002 10.1445 11.8278 10.1859 11.8466 10.2314C11.8655 10.2769 11.8752 10.3257 11.8752 10.375C11.8752 10.4243 11.8655 10.4731 11.8466 10.5186C11.8278 10.5641 11.8002 10.6055 11.7653 10.6403C11.7305 10.6752 11.6891 10.7028 11.6436 10.7216C11.5981 10.7405 11.5493 10.7502 11.5 10.7502C11.4507 10.7502 11.4019 10.7405 11.3564 10.7216C11.3109 10.7028 11.2695 10.6752 11.2347 10.6403L10.375 9.78016V12.625C10.375 12.7245 10.3355 12.8198 10.2652 12.8902C10.1948 12.9605 10.0995 13 10 13C9.90054 13 9.80516 12.9605 9.73484 12.8902C9.66451 12.8198 9.625 12.7245 9.625 12.625V9.78016L8.76531 10.6403C8.73047 10.6752 8.68911 10.7028 8.64359 10.7216C8.59806 10.7405 8.54927 10.7502 8.5 10.7502C8.45073 10.7502 8.40194 10.7405 8.35641 10.7216C8.31089 10.7028 8.26953 10.6752 8.23469 10.6403C8.19985 10.6055 8.17221 10.5641 8.15335 10.5186C8.1345 10.4731 8.12479 10.4243 8.12479 10.375C8.12479 10.3257 8.1345 10.2769 8.15335 10.2314C8.17221 10.1859 8.19985 10.1445 8.23469 10.1097L9.73469 8.60969C9.76951 8.57482 9.81087 8.54716 9.8564 8.52829C9.90192 8.50942 9.95072 8.49971 10 8.49971C10.0493 8.49971 10.0981 8.50942 10.1436 8.52829C10.1891 8.54716 10.2305 8.57482 10.2653 8.60969L11.7653 10.1097Z" fill="#FF7E2B"/>
<defs>
<linearGradient id="paint0_linear_59_530" x1="10" y1="20" x2="10" y2="0" gradientUnits="userSpaceOnUse">
<stop stop-color="white" stop-opacity="0"/>
<stop offset="1" stop-color="white"/>
</linearGradient>
</defs>
</svg>
