<svg width="20" height="20" viewBox="0 0 20 20" fill="none" xmlns="http://www.w3.org/2000/svg">
<rect x="0.25" y="0.25" width="19.5" height="19.5" rx="3.75" fill="#FF7E2B" fill-opacity="0.2"/>
<rect x="0.25" y="0.25" width="19.5" height="19.5" rx="3.75" fill="url(#paint0_linear_59_523)" fill-opacity="0.1" style="mix-blend-mode:overlay"/>
<rect x="0.25" y="0.25" width="19.5" height="19.5" rx="3.75" stroke="#FF7E2B" stroke-width="0.5"/>
<path d="M14.5 6.25H5.5C5.30109 6.25 5.11032 6.32902 4.96967 6.46967C4.82902 6.61032 4.75 6.80109 4.75 7V8.125C4.75 8.32391 4.82902 8.51468 4.96967 8.65533C5.11032 8.79598 5.30109 8.875 5.5 8.875V13C5.5 13.1989 5.57902 13.3897 5.71967 13.5303C5.86032 13.671 6.05109 13.75 6.25 13.75H13.75C13.9489 13.75 14.1397 13.671 14.2803 13.5303C14.421 13.3897 14.5 13.1989 14.5 13V8.875C14.6989 8.875 14.8897 8.79598 15.0303 8.65533C15.171 8.51468 15.25 8.32391 15.25 8.125V7C15.25 6.80109 15.171 6.61032 15.0303 6.46967C14.8897 6.32902 14.6989 6.25 14.5 6.25ZM13.75 13H6.25V8.875H13.75V13ZM14.5 8.125H5.5V7H14.5V8.125ZM8.5 10.375C8.5 10.2755 8.53951 10.1802 8.60984 10.1098C8.68016 10.0395 8.77554 10 8.875 10H11.125C11.2245 10 11.3198 10.0395 11.3902 10.1098C11.4605 10.1802 11.5 10.2755 11.5 10.375C11.5 10.4745 11.4605 10.5698 11.3902 10.6402C11.3198 10.7105 11.2245 10.75 11.125 10.75H8.875C8.77554 10.75 8.68016 10.7105 8.60984 10.6402C8.53951 10.5698 8.5 10.4745 8.5 10.375Z" fill="#FF7E2B"/>
<defs>
<linearGradient id="paint0_linear_59_523" x1="10" y1="20" x2="10" y2="0" gradientUnits="userSpaceOnUse">
<stop stop-color="white" stop-opacity="0"/>
<stop offset="1" stop-color="white"/>
</linearGradient>
</defs>
</svg>
