<svg width="20" height="20" viewBox="0 0 20 20" fill="none" xmlns="http://www.w3.org/2000/svg">
<rect x="0.25" y="0.25" width="19.5" height="19.5" rx="3.75" fill="#D1021F" fill-opacity="0.2"/>
<rect x="0.25" y="0.25" width="19.5" height="19.5" rx="3.75" fill="url(#paint0_linear_59_520)" fill-opacity="0.1" style="mix-blend-mode:overlay"/>
<rect x="0.25" y="0.25" width="19.5" height="19.5" rx="3.75" stroke="#D1021F" stroke-width="0.5"/>
<path d="M14.125 6.25H12.25V5.875C12.25 5.57663 12.1315 5.29048 11.9205 5.0795C11.7095 4.86853 11.4234 4.75 11.125 4.75H8.875C8.57663 4.75 8.29048 4.86853 8.0795 5.0795C7.86853 5.29048 7.75 5.57663 7.75 5.875V6.25H5.875C5.77554 6.25 5.68016 6.28951 5.60984 6.35984C5.53951 6.43016 5.5 6.52554 5.5 6.625C5.5 6.72446 5.53951 6.81984 5.60984 6.89016C5.68016 6.96049 5.77554 7 5.875 7H6.25V13.75C6.25 13.9489 6.32902 14.1397 6.46967 14.2803C6.61032 14.421 6.80109 14.5 7 14.5H13C13.1989 14.5 13.3897 14.421 13.5303 14.2803C13.671 14.1397 13.75 13.9489 13.75 13.75V7H14.125C14.2245 7 14.3198 6.96049 14.3902 6.89016C14.4605 6.81984 14.5 6.72446 14.5 6.625C14.5 6.52554 14.4605 6.43016 14.3902 6.35984C14.3198 6.28951 14.2245 6.25 14.125 6.25ZM8.5 5.875C8.5 5.77554 8.53951 5.68016 8.60984 5.60984C8.68016 5.53951 8.77554 5.5 8.875 5.5H11.125C11.2245 5.5 11.3198 5.53951 11.3902 5.60984C11.4605 5.68016 11.5 5.77554 11.5 5.875V6.25H8.5V5.875ZM13 13.75H7V7H13V13.75ZM9.25 8.875V11.875C9.25 11.9745 9.21049 12.0698 9.14016 12.1402C9.06984 12.2105 8.97446 12.25 8.875 12.25C8.77554 12.25 8.68016 12.2105 8.60984 12.1402C8.53951 12.0698 8.5 11.9745 8.5 11.875V8.875C8.5 8.77554 8.53951 8.68016 8.60984 8.60984C8.68016 8.53951 8.77554 8.5 8.875 8.5C8.97446 8.5 9.06984 8.53951 9.14016 8.60984C9.21049 8.68016 9.25 8.77554 9.25 8.875ZM11.5 8.875V11.875C11.5 11.9745 11.4605 12.0698 11.3902 12.1402C11.3198 12.2105 11.2245 12.25 11.125 12.25C11.0255 12.25 10.9302 12.2105 10.8598 12.1402C10.7895 12.0698 10.75 11.9745 10.75 11.875V8.875C10.75 8.77554 10.7895 8.68016 10.8598 8.60984C10.9302 8.53951 11.0255 8.5 11.125 8.5C11.2245 8.5 11.3198 8.53951 11.3902 8.60984C11.4605 8.68016 11.5 8.77554 11.5 8.875Z" fill="#D1021F"/>
<defs>
<linearGradient id="paint0_linear_59_520" x1="10" y1="20" x2="10" y2="0" gradientUnits="userSpaceOnUse">
<stop stop-color="white" stop-opacity="0"/>
<stop offset="1" stop-color="white"/>
</linearGradient>
</defs>
</svg>
